<svg width="186" height="33" viewBox="0 0 186 33" fill="none" xmlns="http://www.w3.org/2000/svg">
<path d="M37.6438 23.7992L22.5638 13.4867C21.0356 12.4417 21.5551 10.2658 23.4607 9.75414L39.488 5.44164C39.8275 5.32019 40.1913 5.28077 40.5493 5.32664C40.9072 5.37252 41.249 5.50237 41.5462 5.70542C41.8434 5.90847 42.0875 6.17886 42.2581 6.49415C42.4288 6.80944 42.5211 7.16054 42.5275 7.51831L41.5777 22.1425C41.465 23.8783 39.1719 24.8442 37.6438 23.7992Z" fill="#E9327C"/>
<path d="M32.8609 26.345L23.9768 9.12086C23.7737 8.72683 23.6843 8.28484 23.7185 7.84364C23.7527 7.40245 23.9092 6.97919 24.1706 6.62055C24.432 6.26191 24.7883 5.98181 25.2001 5.81114C25.6119 5.64048 26.0633 5.58588 26.5044 5.65337L42.9688 8.17253C43.3479 8.23054 43.7076 8.37691 44.0186 8.59962C44.3294 8.82234 44.5825 9.11502 44.7571 9.45361C44.9316 9.7922 45.0226 10.167 45.0225 10.5473C45.0225 10.9275 44.9313 11.3023 44.7568 11.6409L37.1722 26.3458C36.9685 26.7387 36.6595 27.0684 36.2792 27.2985C35.8988 27.5287 35.4619 27.6503 35.0163 27.6502C34.5707 27.6502 34.1338 27.5283 33.7535 27.2981C33.3732 27.0677 33.0644 26.738 32.8609 26.345Z" fill="#1DACE3"/>
<path d="M42.4872 8.09835L34.2798 6.84251L24.2029 9.55501L28.2251 17.3558L37.6438 23.7992C37.8516 23.9398 38.0801 24.0474 38.3213 24.1183L41.8988 17.1825L42.4872 8.09835Z" fill="#001A49"/>
<path d="M84.0597 10.1117C84.0597 9.80924 84.1502 9.5136 84.3196 9.26213C84.4892 9.01066 84.7301 8.81466 85.0119 8.69892C85.2938 8.58318 85.6039 8.5529 85.9031 8.6119C86.2023 8.67091 86.4772 8.81655 86.6929 9.0304C86.9086 9.24426 87.0555 9.51673 87.115 9.81336C87.1745 10.11 87.144 10.4175 87.0272 10.6969C86.9105 10.9763 86.7128 11.2151 86.4592 11.3831C86.2055 11.5512 85.9072 11.6409 85.6022 11.6409C85.1944 11.6367 84.8045 11.4743 84.5161 11.1884C84.2278 10.9025 84.0639 10.516 84.0597 10.1117ZM84.317 12.3883H86.8883V20.8833H84.317V12.3883Z" fill="#001A49"/>
<path d="M97.9923 16.6358C98.0222 17.1973 97.9397 17.7592 97.7498 18.289C97.5599 18.8187 97.2662 19.3062 96.8856 19.7231C96.505 20.1399 96.0451 20.4781 95.5321 20.7182C95.0192 20.9582 94.4635 21.0953 93.897 21.1217C93.4204 21.1473 92.9441 21.0677 92.5024 20.8884C92.0607 20.7091 91.6648 20.4347 91.3433 20.085V24.2817H88.7728V12.3883H91.3433V13.1867C91.6649 12.8371 92.0608 12.5628 92.5025 12.3837C92.9442 12.2045 93.4205 12.125 93.897 12.1508C94.4635 12.1771 95.0191 12.3141 95.5321 12.554C96.045 12.794 96.5049 13.1321 96.8856 13.5489C97.2662 13.9657 97.5599 14.453 97.7498 14.9828C97.9397 15.5126 98.0222 16.0743 97.9923 16.6358ZM95.4218 16.6358C95.4117 16.2381 95.2835 15.8522 95.0533 15.5262C94.823 15.2004 94.5009 14.9491 94.1274 14.8038C93.7537 14.6585 93.3452 14.6257 92.9529 14.7095C92.5606 14.7932 92.2018 14.9898 91.9217 15.2747C91.6415 15.5595 91.4523 15.92 91.3777 16.3109C91.3032 16.7018 91.3466 17.1059 91.5026 17.4725C91.6585 17.8391 91.92 18.1519 92.2544 18.3719C92.5889 18.5919 92.9812 18.7092 93.3825 18.7092C93.6581 18.7215 93.9332 18.6758 94.1897 18.5753C94.4463 18.4747 94.6784 18.3215 94.871 18.1257C95.0636 17.9299 95.2122 17.696 95.3072 17.4392C95.4021 17.1824 95.4412 16.9086 95.4218 16.6358Z" fill="#001A49"/>
<path d="M105.927 18.3333C105.927 20.2875 104.213 21.12 102.362 21.12C101.614 21.1871 100.863 21.0302 100.206 20.6696C99.5495 20.3091 99.017 19.7614 98.6775 19.0975L100.905 17.8408C100.996 18.1477 101.19 18.4145 101.455 18.5965C101.72 18.7785 102.04 18.8647 102.362 18.8408C102.979 18.8408 103.286 18.6533 103.286 18.3142C103.286 17.3792 99.0709 17.8725 99.0709 14.9325C99.0709 13.0808 100.647 12.1467 102.433 12.1467C103.103 12.1258 103.767 12.2834 104.354 12.6031C104.942 12.9227 105.432 13.3927 105.774 13.9642L103.581 15.1367C103.486 14.9137 103.325 14.7236 103.121 14.5902C102.917 14.4568 102.678 14.3861 102.433 14.3867C101.988 14.3867 101.714 14.5533 101.714 14.8625C101.711 15.8375 105.927 15.1917 105.927 18.3333Z" fill="#001A49"/>
<path d="M115.322 12.3883V20.8833H112.751V20.0833C112.455 20.4358 112.077 20.7134 111.651 20.8937C111.226 21.0738 110.762 21.1514 110.3 21.12C108.569 21.12 107.096 19.8967 107.096 17.6025V12.3883H109.666V17.2308C109.644 17.4333 109.668 17.6381 109.734 17.8308C109.801 18.0234 109.908 18.1995 110.05 18.3467C110.193 18.4938 110.365 18.6085 110.556 18.6828C110.747 18.7571 110.952 18.7891 111.158 18.7767C112.1 18.7767 112.755 18.2333 112.755 17.0267V12.3883H115.322Z" fill="#001A49"/>
<path d="M130.055 15.6667V20.8833H127.485V15.8883C127.485 15.0392 127.073 14.495 126.251 14.495C125.394 14.495 124.914 15.09 124.914 16.0925V20.8833H122.343V15.8883C122.343 15.0392 121.932 14.495 121.109 14.495C120.253 14.495 119.773 15.09 119.773 16.0925V20.8833H117.202V12.3883H119.777V13.1667C120.043 12.8201 120.393 12.5453 120.794 12.3672C121.195 12.1892 121.635 12.1136 122.073 12.1475C122.513 12.1262 122.952 12.2182 123.345 12.4147C123.738 12.6111 124.074 12.9052 124.318 13.2683C124.603 12.8884 124.981 12.5863 125.415 12.3903C125.85 12.1942 126.328 12.1107 126.804 12.1475C128.771 12.1508 130.055 13.5433 130.055 15.6667Z" fill="#001A49"/>
<path d="M132.233 12.3358C133.287 12.3358 134.141 11.4889 134.141 10.4442C134.141 9.39944 133.287 8.55251 132.233 8.55251C131.179 8.55251 130.325 9.39944 130.325 10.4442C130.325 11.4889 131.179 12.3358 132.233 12.3358Z" fill="#001A49"/>
<path d="M48.9639 8.48079H51.5352V20.8833H48.9639V8.48079ZM52.9911 16.6358C52.9883 15.7452 53.2521 14.8737 53.7491 14.1319C54.2461 13.39 54.9541 12.811 55.7832 12.4682C56.6125 12.1255 57.5255 12.0343 58.407 12.2064C59.2884 12.3784 60.0986 12.8058 60.7348 13.4347C61.3711 14.0634 61.8048 14.8652 61.9811 15.7385C62.1573 16.6118 62.0683 17.5173 61.7252 18.3404C61.3821 19.1635 60.8003 19.8672 60.0535 20.3622C59.3068 20.8573 58.4286 21.1217 57.5302 21.1217C56.9336 21.1279 56.3416 21.0163 55.7889 20.7933C55.2363 20.5703 54.734 20.2403 54.3115 19.8227C53.8888 19.4051 53.5544 18.9082 53.3277 18.361C53.101 17.8138 52.9866 17.2273 52.9911 16.6358ZM59.5039 16.6358C59.4938 16.2516 59.3697 15.8789 59.1471 15.5643C58.9245 15.2497 58.6132 15.0072 58.2523 14.867C57.8912 14.7269 57.4967 14.6953 57.1177 14.7764C56.7388 14.8574 56.3924 15.0475 56.1218 15.3227C55.8512 15.5979 55.6686 15.9461 55.5965 16.3237C55.5246 16.7013 55.5664 17.0916 55.7171 17.4457C55.8676 17.7998 56.1202 18.1021 56.4432 18.3147C56.7661 18.5272 57.1451 18.6407 57.5327 18.6408C57.7982 18.6483 58.0624 18.6012 58.3085 18.5024C58.5547 18.4037 58.7775 18.2555 58.9631 18.0671C59.1486 17.8787 59.2927 17.6543 59.3864 17.408C59.48 17.1616 59.5212 16.8987 59.5072 16.6358H59.5039ZM72.3219 12.3858V20.4567C72.3219 23.3108 70.0767 24.5167 67.7979 24.5167C66.9958 24.5767 66.1925 24.4166 65.4759 24.0539C64.7595 23.6913 64.1576 23.1401 63.7362 22.4608L65.9293 21.2033C66.1063 21.5578 66.3883 21.8503 66.7376 22.0417C67.0868 22.2331 67.4866 22.3142 67.8836 22.2742C68.1371 22.3084 68.3949 22.2859 68.6384 22.2082C68.8818 22.1304 69.1045 21.9996 69.2901 21.8251C69.4756 21.6507 69.6192 21.4372 69.7105 21.2002C69.8017 20.9634 69.8381 20.7092 69.817 20.4567V19.675C69.5159 20.04 69.1326 20.33 68.6981 20.5217C68.2636 20.7135 67.7897 20.8017 67.3145 20.7792C66.1835 20.7442 65.1105 20.2743 64.3229 19.4688C63.5353 18.6633 63.0948 17.5856 63.0948 16.4637C63.0948 15.3418 63.5353 14.2641 64.3229 13.4586C65.1105 12.6531 66.1835 12.1831 67.3145 12.1483C67.7897 12.1258 68.2636 12.2139 68.6981 12.4057C69.1326 12.5974 69.5159 12.8874 69.817 13.2525V12.3858H72.3219ZM69.8203 16.4633C69.8373 16.053 69.73 15.6471 69.5124 15.2977C69.2948 14.9482 68.9767 14.6713 68.599 14.5026C68.2214 14.3338 67.8015 14.2809 67.3933 14.3507C66.9851 14.4204 66.6073 14.6096 66.3084 14.8939C66.0095 15.1782 65.8032 15.5447 65.7161 15.9461C65.6289 16.3476 65.6649 16.7657 65.8194 17.1467C65.9738 17.5277 66.2398 17.8542 66.5829 18.0842C66.926 18.3142 67.3308 18.4372 67.7449 18.4375C68.015 18.4562 68.2861 18.4188 68.5407 18.3276C68.7953 18.2363 69.0278 18.0932 69.2233 17.9075C69.4188 17.7218 69.5729 17.4976 69.6757 17.2493C69.7785 17.001 69.8278 16.7341 69.8203 16.4658V16.4633ZM73.7778 16.63C73.775 15.7393 74.0388 14.8679 74.5358 14.1261C75.0328 13.3842 75.7408 12.8052 76.5699 12.4624C77.3991 12.1196 78.3122 12.0285 79.1937 12.2005C80.0751 12.3726 80.8852 12.8 81.5215 13.4288C82.1578 14.0576 82.5915 14.8593 82.7678 15.7327C82.944 16.606 82.855 17.5115 82.5119 18.3346C82.1688 19.1577 81.587 19.8613 80.8402 20.3564C80.0935 20.8515 79.2153 21.1158 78.3169 21.1158C77.7208 21.1221 77.1293 21.0107 76.5771 20.788C76.0248 20.5654 75.5227 20.2359 75.1002 19.8189C74.6777 19.4019 74.3432 18.9057 74.1162 18.3592C73.8891 17.8127 73.7741 17.2268 73.7778 16.6358V16.63ZM80.2906 16.63C80.2807 16.2456 80.1566 15.8726 79.934 15.5577C79.7113 15.2428 79.3999 15.0001 79.0388 14.8597C78.6776 14.7194 78.2828 14.6878 77.9036 14.7689C77.5244 14.8499 77.1777 15.0401 76.9071 15.3154C76.6363 15.5908 76.4535 15.9392 76.3815 16.3171C76.3095 16.6949 76.3515 17.0855 76.5023 17.4397C76.6531 17.7941 76.9058 18.0964 77.229 18.3091C77.5523 18.5217 77.9316 18.635 78.3194 18.635C78.5841 18.6419 78.8473 18.5947 79.0927 18.4961C79.338 18.3975 79.5602 18.2497 79.7453 18.062C79.9303 17.8743 80.0743 17.6507 80.1681 17.4053C80.262 17.1599 80.3037 16.8979 80.2906 16.6358V16.63Z" fill="#001A49"/>
</svg>
